<svg width="76" height="61" viewBox="0 0 76 61" fill="none" xmlns="http://www.w3.org/2000/svg">
<path d="M70.2474 0H5.49255C3.41481 0 1.73047 1.68434 1.73047 3.76208V47.6355C1.73047 49.7132 3.41481 51.3975 5.49255 51.3975H70.2474C72.3251 51.3975 74.0094 49.7132 74.0094 47.6355V3.76208C74.0094 1.68434 72.3251 0 70.2474 0Z" fill="#2865EB"/>
<path d="M6.56939 53.929C5.01159 51.9106 3.45379 49.8922 1.89599 47.8738C1.44033 38.5797 1.99962 30.8992 2.67407 25.3063C3.63474 17.3429 4.61185 15.4495 6.09399 14.0464C10.32 10.0507 17.3868 11.2663 28.9165 12.7995C36.3156 13.7832 47.3173 15.1337 61.1862 16.3987C63.9579 16.9563 70.6465 18.6902 73.1567 23.8373C73.5235 24.5907 74.2391 26.2653 73.9348 32.6446C73.6041 39.5667 73.4396 43.0277 72.377 45.3044C66.4337 58.0398 30.4463 55.7434 17.1631 54.8963C12.5736 54.6035 8.85427 54.2021 6.5661 53.9274L6.56939 53.929Z" fill="url(#paint0_linear_2320_3518)"/>
<path d="M64.0055 25.2656L9.20336 29.8096C4.12048 30.2311 0.341661 34.6932 0.763122 39.7761L1.75515 51.7401C2.17662 56.823 6.63876 60.6018 11.7216 60.1804L66.5238 55.6363C71.6066 55.2148 75.3854 50.7527 74.964 45.6698L73.9719 33.7058C73.5505 28.6229 69.0884 24.8441 64.0055 25.2656Z" fill="#2865EB"/>
<path d="M10.5273 39.4272H15.3685C17.7603 39.4272 19.7031 41.37 19.7031 43.7618V50.2364C19.7031 51.2514 18.8789 52.0755 17.864 52.0755H10.5273V39.4272Z" fill="url(#paint1_linear_2320_3518)"/>
<path d="M12.9976 46.2045C13.0124 47.2507 13.0124 48.3199 12.9976 49.4089C12.9712 51.2299 12.9022 52.995 12.7969 54.7008C13.6556 54.6432 16.429 54.3603 18.2122 52.3518C18.3898 52.1527 19.0264 51.4059 19.5084 49.8826C20.4115 47.0302 19.8555 44.344 19.2485 42.5806C19.0676 43.0214 18.3849 44.5151 16.582 45.4708C15.0373 46.2884 13.5486 46.2472 12.9959 46.2061L12.9976 46.2045Z" fill="white"/>
<defs>
<linearGradient id="paint0_linear_2320_3518" x1="1.73149" y1="33.4835" x2="74.0105" y2="33.4835" gradientUnits="userSpaceOnUse">
<stop stop-color="#B9D4FF"/>
<stop offset="1" stop-color="#457AEF"/>
</linearGradient>
<linearGradient id="paint1_linear_2320_3518" x1="10.5273" y1="45.7506" x2="19.7031" y2="45.7506" gradientUnits="userSpaceOnUse">
<stop stop-color="#B9D4FF"/>
<stop offset="1" stop-color="#457AEF"/>
</linearGradient>
</defs>
</svg>
